<svg width="200" height="56" viewBox="0 0 200 56" fill="none" xmlns="http://www.w3.org/2000/svg">
<path d="M175.653 55.5314C171.697 55.2608 168.607 54.0835 166.189 51.8777C165.126 50.8772 164.239 49.7163 163.56 48.4405C163.463 48.2376 163.365 48.0752 163.351 48.0752C163.159 48.175 162.973 48.2833 162.792 48.3999L159.381 50.2945C153.971 53.1092 148.407 54.7601 142.801 55.2472C140.984 55.3826 138.887 55.4232 137.601 55.3149C134.721 55.0443 132.386 54.2594 130.499 52.8791C129.794 52.3204 129.139 51.7048 128.542 51.0387C128.177 50.5849 127.841 50.1104 127.535 49.6178L127.34 49.2795L126.724 49.7938C123.369 52.5814 119.916 54.3135 116.491 54.936C114.842 55.2337 113.067 55.2608 111.822 55.0172C111.043 54.9005 110.303 54.6083 109.662 54.164C109.021 53.7198 108.497 53.136 108.132 52.4596C107.293 50.9169 107.111 48.8059 107.503 45.7882C107.74 43.9749 107.922 43.0141 108.901 39.6987C109.348 37.9395 109.739 35.9097 109.879 34.5835C109.963 33.7987 109.963 32.662 109.879 32.1477C109.697 30.9704 109.25 30.2938 108.439 29.9826C108.16 29.8743 107.419 29.8473 107.069 29.942C105.573 30.3209 103.854 32.0801 101.897 35.2196C99.1988 39.5499 97.703 43.5825 97.3256 47.7369C97.2417 48.6029 97.2557 51.0658 97.3396 51.8507C97.4374 52.7438 97.6192 53.6504 97.8708 54.2865L98.0945 54.9089C98.1224 54.9901 98.0805 54.9901 96.7524 54.9631C95.2706 54.936 94.334 54.8683 93.3135 54.6924C89.6089 54.097 87.512 52.6626 86.6033 50.0915C86.0441 48.5353 85.9043 46.8708 86.0861 44.3809C86.2199 42.624 86.5289 40.8838 87.0087 39.1845C87.4246 37.7105 87.7283 36.2089 87.9174 34.6918C88.0013 33.9205 88.0152 32.4861 87.9453 32.0936C87.6657 30.8351 87.0786 30.172 85.9882 29.9285C85.7645 29.8879 85.5269 29.8743 85.2054 29.8879C84.9319 29.8831 84.6605 29.9338 84.4085 30.0367C83.0106 30.578 81.5148 32.3372 79.9351 35.4496C78.2087 38.7051 77.1232 42.2431 76.7338 45.8829C76.5241 47.8316 76.5381 50.6192 76.7338 52.4325C76.8456 53.4069 77.0693 54.4624 77.293 55.0307C77.3209 55.1119 77.293 55.1119 76.1187 55.0849C74.7147 55.0877 73.3157 54.9241 71.9528 54.5977C70.2515 54.235 68.6996 53.392 67.4933 52.1754C66.7064 51.2688 66.1338 50.2065 65.8158 49.063C65.7797 48.9261 65.7377 48.7906 65.69 48.6571C65.676 48.6435 65.4943 48.7924 65.2706 48.9954C62.1252 51.7695 59.2874 53.5016 56.2538 54.503C54.5763 55.0443 52.7589 55.3555 51.1373 55.3555C48.7608 55.3555 47.0413 54.5436 45.9369 52.9197C45.4896 52.2702 45.238 51.7018 45.0283 50.8899C44.6089 49.266 44.6788 47.3038 45.3079 44.232L47.0833 37.2629L48.5371 32.0801C48.7608 31.214 48.7748 31.1328 48.7748 30.6863C48.7608 29.1977 48.1457 28.3587 47.0972 28.3452C46.8176 28.3452 46.7477 28.3587 46.4262 28.5076C45.9509 28.7376 45.5874 28.9812 44.6648 29.6172L43.8819 30.1585L43.7701 30.4968C43.1271 32.3643 41.7291 35.0978 40.1075 37.5877C38.3321 40.3483 35.6061 43.9478 33.2575 46.6814C28.6862 51.986 24.758 54.8683 21.2911 55.4773C20.648 55.5856 19.6834 55.5856 19.1941 55.4638C17.0413 54.9495 15.2799 52.8385 13.7142 49.0089C12.9995 46.6707 12.3284 44.3202 11.7011 41.9586C11.041 39.5708 10.3746 37.1846 9.70207 34.8001C9.22335 33.0226 8.49921 31.3156 7.54922 29.7255C6.99004 28.9135 6.31903 28.3993 5.73189 28.3452C5.49424 28.3181 5.4523 28.3317 5.08883 28.5076C4.72536 28.6835 3.59302 29.3872 2.6564 30.0232L2.12518 30.375C2.09722 30.3886 1.70579 29.9691 1.07671 29.1571C0.724926 28.7133 0.370775 28.2712 0.0142723 27.831C-0.0416457 27.7768 0.0422314 27.6956 0.713248 27.1002C2.24395 25.7725 3.76773 24.4373 5.28454 23.0947C7.35351 21.2543 8.55575 20.3071 9.9537 19.441C11.4355 18.4937 12.3722 18.1419 13.4765 18.0878C16.2445 17.9525 18.0898 19.441 19.0683 22.9864C19.306 23.7984 19.4178 24.3397 19.7673 26.5589L21.7244 36.8434C22.4654 39.7123 23.2901 41.3767 24.1708 41.7962C24.4085 41.9045 24.4784 41.9315 24.6881 41.9045C25.6667 41.8368 27.0227 40.3753 28.9239 37.4388C30.4616 35.003 31.4402 33.0544 31.7617 31.5659C31.8456 31.187 31.8596 31.0246 31.8596 30.2397C31.8596 29.4548 31.8456 29.2924 31.7897 29.0759C31.566 28.3181 31.1606 27.8039 30.5315 27.5062C30.0143 27.2626 29.6648 27.195 28.854 27.195C27.9015 27.1949 26.9576 27.3694 26.0721 27.7092C25.7925 27.8039 25.6527 27.8445 25.6247 27.8174C25.684 27.5742 25.7587 27.3346 25.8484 27.1002C26.6312 24.8809 27.5259 23.0406 28.7282 21.6873C29.1475 21.1461 30.0143 20.2935 30.5175 19.9011C31.3563 19.2245 32.4747 18.6155 33.4812 18.2772C35.648 17.5059 38.5977 17.3706 40.4709 17.966C43.0152 18.7779 44.3852 20.8348 44.6648 24.4073L44.6928 24.7456L44.8885 24.5697L46.566 23.2165C49.9211 20.2394 51.8782 18.8862 53.4998 18.4261C53.8214 18.3314 54.0031 18.3178 54.5623 18.2908C56.6033 18.2231 58.0292 18.832 59.0078 20.28C59.9025 21.5791 60.3079 23.2571 60.1821 25.1922C60.1541 25.7335 60.0842 26.1394 59.7207 27.8986L57.5679 39.6717C57.3162 41.2143 57.2883 41.2685 57.3302 41.8368C57.3862 43.2171 57.6937 44.0696 58.3368 44.7056C58.5186 44.8975 58.737 45.0537 58.9798 45.1657C59.539 45.4364 60.3778 45.5176 60.9369 45.3823C61.4709 45.2047 61.9821 44.9686 62.4607 44.6786C63.5557 44.0145 64.581 43.2486 65.5222 42.3916C65.577 42.0222 65.6283 41.6523 65.676 41.282L66.2352 37.8042L67.046 32.3372L67.2137 29.6308C67.1578 28.9 66.6546 28.5211 66.0534 28.7106C65.6341 28.8459 64.7394 29.3872 63.4952 30.2262C62.978 30.578 62.8661 30.6321 62.8242 30.5915L60.4896 27.9798C60.4896 27.9663 60.6014 27.8445 60.7412 27.7498L65.2566 23.6901L70.0096 19.6304C70.8764 18.9944 71.5474 18.6155 72.1345 18.4125C72.3862 18.3314 72.512 18.3178 72.9733 18.3178C73.3088 18.3178 73.6723 18.3449 73.8121 18.3855C75.0003 18.6561 75.9369 19.2921 76.7058 20.4153C77.4747 21.5385 77.9919 22.797 78.2156 24.2043C78.3554 24.9757 78.3554 26.4777 78.2436 27.1138L78.1737 27.5739C78.1737 27.6009 78.3135 27.4385 78.4533 27.2085C79.6677 25.5198 81.149 24.0266 82.8428 22.7835C83.5147 22.305 84.2098 21.8579 84.9258 21.4438C87.3862 20.0905 90.0982 19.3463 92.8102 19.2786C95.3265 19.1974 97.2277 19.7928 98.5418 21.0378C99.0317 21.5138 99.4337 22.0676 99.7301 22.6752C100.317 23.8525 100.569 25.111 100.653 26.9108L100.681 27.7768L101.436 27.1408C101.872 26.7753 102.283 26.382 102.666 25.9635C103.427 25.1283 104.23 24.329 105.07 23.5683C107.824 21.1325 110.732 19.7522 113.905 19.3733C114.674 19.2786 115.96 19.238 116.617 19.3057C118.237 19.3692 119.776 20.0102 120.937 21.1055C122.475 22.6887 123.132 24.7998 122.978 27.7904C122.866 29.9555 122.531 31.9448 121.58 35.9097C120.42 40.8896 120.238 41.9451 120.378 43.2983C120.49 44.3809 120.713 44.841 121.286 45.1387C121.706 45.3552 122.069 45.4364 122.824 45.4634C123.439 45.4905 123.481 45.477 123.803 45.3687C124.222 45.2334 124.781 44.9628 125.313 44.6109C125.634 44.4079 125.704 44.3403 125.69 44.2861C125.62 44.0155 125.55 42.527 125.592 41.6474C125.645 38.8176 126.362 36.0366 127.689 33.5145C128.64 31.6495 129.823 29.9044 131.212 28.3181C135.406 23.3112 140.718 20.1988 146.505 19.1162C148.882 18.6832 151.678 18.5749 153.719 18.8456C157.633 19.3327 160.066 20.9701 161.156 23.8254C161.505 24.7727 161.715 25.7876 161.743 26.9108C161.771 28.034 161.659 28.8459 161.282 29.9691C160.443 32.459 158.486 34.9489 155.382 37.5742C151.706 40.6595 147.176 42.8111 142.032 43.9343L139.935 44.3403C139.879 44.3403 140.354 44.8816 140.676 45.1522C141.655 46.0589 142.857 46.5731 144.353 46.749C144.912 46.8167 147.009 46.7761 147.987 46.6814C152.111 46.3024 156.151 45.2334 160.904 43.2577L161.883 42.8517L161.855 42.6217C161.724 41.2443 161.724 39.8582 161.855 38.4808C162.213 35.2475 163.384 32.1484 165.266 29.4548C166.038 28.3163 166.903 27.2394 167.852 26.2342C169.914 23.8961 172.432 21.974 175.261 20.5777C178.469 19.0214 182.004 18.2018 185.592 18.1825C187.228 18.1554 188.332 18.2366 189.646 18.4937C191.431 18.8312 193.116 19.5476 194.581 20.5912C195.611 21.3881 196.519 22.3221 197.279 23.3653C199.166 25.9365 200.103 29.3195 199.991 33.2033C199.893 36.7216 199.152 39.8882 197.754 42.8788C196.356 45.5582 194.427 48.3323 192.107 50.4162C188.542 53.664 184.46 55.4232 179.553 55.9103C178.924 55.978 176.436 56.0186 175.834 55.9915L175.653 55.5314ZM178.7 47.1956C181.286 46.8979 183.593 45.1657 185.522 42.0127C187.462 38.9987 188.466 35.5089 188.416 31.9583C188.374 30.578 188.206 29.5631 187.815 28.4129C187.451 27.3709 187.088 26.7484 186.599 26.3154C186.109 25.8823 185.62 25.747 184.614 25.8147C183.545 25.8772 182.5 26.1439 181.538 26.5995C179.721 27.4656 178.183 28.9271 176.785 31.2005C175.007 33.9777 173.974 37.1407 173.779 40.4024C173.668 42.1616 173.947 43.6501 174.66 45.044C175.163 46.0183 175.807 46.7084 176.519 47.0061C177.216 47.2535 177.967 47.3098 178.7 47.1956ZM138.761 39.8882C142.667 38.4022 146.039 35.8434 148.463 32.5266C149.12 31.5794 149.539 30.6592 149.679 29.8879C149.735 29.4047 149.711 28.916 149.609 28.4399C149.539 28.1287 149.329 27.7362 149.162 27.5468C148.994 27.3573 148.658 27.1408 148.323 27.0461C147.78 26.9367 147.221 26.923 146.673 27.0055C144.898 27.3709 143.15 28.6835 141.389 30.984C139.474 33.4739 138.425 35.8556 138.174 38.1967C138.118 38.8056 138.118 40.0912 138.174 40.0912C138.359 40.0377 138.541 39.9744 138.719 39.9017L138.761 39.8882ZM53.4859 12.1471C52.5073 12.0659 51.5008 11.7953 50.8577 11.4299C50.4942 11.2269 49.9491 10.7533 49.7114 10.4421C49.3321 9.90281 49.0836 9.28756 48.9845 8.64229C48.8867 7.92299 48.8961 7.19384 49.0124 6.47713C49.2361 5.39456 49.8512 4.36611 50.8857 3.32413C52.6369 1.46976 55.0287 0.300061 57.6098 0.0357975C59.0078 -0.0995247 60.2659 0.144055 61.2026 0.84773C62.1392 1.55141 62.8801 2.60692 63.2156 3.62183C63.3554 4.12253 63.4113 4.97506 63.2995 5.57047C63.0478 6.96429 62.251 8.27692 60.8391 9.63014C59.3433 11.051 57.7356 11.8224 55.8065 12.093C55.2473 12.1742 54.073 12.2013 53.5138 12.1607L53.4859 12.1471Z" fill="currentColor"/>
</svg>
