<svg width="41" height="31" viewBox="0 0 41 31" fill="none" xmlns="http://www.w3.org/2000/svg">
<g clip-path="url(#clip0_9_141)">
<path d="M33.2989 20.5669L31.1944 17.6011L29.7206 18.639L29.9476 18.9597C28.8753 18.8209 27.7857 18.9936 26.8088 19.457V15.2696H29.3314V9.98311H25.007C24.9356 9.98217 24.8674 9.9534 24.817 9.90292C24.7665 9.85243 24.7377 9.78423 24.7368 9.71284V7.9723C24.7387 7.77784 24.7021 7.58493 24.6291 7.40468C24.5561 7.22443 24.4481 7.0604 24.3115 6.92206C24.1748 6.78371 24.0121 6.67378 23.8328 6.5986C23.6534 6.52342 23.461 6.48447 23.2665 6.48401H18.5097C18.1195 6.48496 17.7455 6.64067 17.4699 6.91697C17.1943 7.19327 17.0395 7.56761 17.0395 7.95788V9.72725C17.0385 9.79864 17.0098 9.86684 16.9593 9.91733C16.9088 9.96781 16.8406 9.99659 16.7692 9.99752H12.607V15.2696H14.6467V19.3236C13.968 19.0528 13.2441 18.9134 12.5133 18.9128C12.282 18.9138 12.0509 18.9295 11.8215 18.9597L12.0449 18.639L10.5746 17.6011L8.49172 20.5381C7.84937 21.1588 7.35922 21.9196 7.05955 22.7611C6.75989 23.6025 6.65882 24.5019 6.76424 25.3889C6.86966 26.2759 7.17872 27.1266 7.66728 27.8744C8.15583 28.6222 8.81066 29.2469 9.5806 29.6997C10.3505 30.1526 11.2148 30.4213 12.1057 30.4849C12.9967 30.5485 13.8904 30.4053 14.7168 30.0664C15.5433 29.7275 16.2802 29.2021 16.87 28.5313C17.4598 27.8605 17.8866 27.0624 18.1169 26.1993H23.6485C23.8761 27.0636 24.3005 27.8636 24.8884 28.5367C25.4764 29.2099 26.212 29.738 27.0378 30.0799C27.8636 30.4217 28.7572 30.568 29.6489 30.5074C30.5406 30.4467 31.4063 30.1807 32.1782 29.7302C32.9501 29.2797 33.6074 28.6568 34.0988 27.9103C34.5901 27.1637 34.9023 26.3136 35.0108 25.4265C35.1193 24.5393 35.0212 23.6391 34.7243 22.7961C34.4273 21.9531 33.9395 21.1902 33.2989 20.5669ZM20.8809 18.1993C21.0394 18.1986 21.1946 18.245 21.3267 18.3326C21.4588 18.4203 21.5619 18.5452 21.6229 18.6915C21.6839 18.8378 21.7001 18.999 21.6693 19.1545C21.6386 19.31 21.5623 19.4529 21.4502 19.565C21.3381 19.6771 21.1952 19.7534 21.0397 19.7841C20.8842 19.8149 20.723 19.7987 20.5767 19.7377C20.4304 19.6767 20.3055 19.5736 20.2178 19.4415C20.1302 19.3094 20.0838 19.1542 20.0845 18.9957C20.0845 18.7845 20.1684 18.5819 20.3178 18.4326C20.4671 18.2832 20.6697 18.1993 20.8809 18.1993ZM12.5133 28.7146C11.7222 28.7146 10.9489 28.48 10.2911 28.0405C9.63326 27.601 9.12057 26.9763 8.81782 26.2454C8.51507 25.5145 8.43586 24.7102 8.5902 23.9343C8.74454 23.1584 9.12551 22.4456 9.68492 21.8862C10.2443 21.3268 10.9571 20.9458 11.733 20.7915C12.5089 20.6372 13.3132 20.7164 14.0441 21.0191C14.775 21.3219 15.3997 21.8346 15.8392 22.4924C16.2787 23.1502 16.5133 23.9235 16.5133 24.7146C16.5133 25.7755 16.0919 26.7929 15.3418 27.5431C14.5916 28.2932 13.5742 28.7146 12.5133 28.7146ZM16.4485 20.4624V15.2696H18.4305V18.1525C18.2882 18.561 18.2503 18.9987 18.32 19.4256C18.3898 19.8526 18.5651 20.2554 18.8299 20.5974C19.0948 20.9395 19.4409 21.21 19.8368 21.3844C20.2327 21.5588 20.6659 21.6316 21.0971 21.5961C21.5282 21.5607 21.9437 21.4182 22.3058 21.1814C22.668 20.9447 22.9652 20.6214 23.1707 20.2406C23.3762 19.8599 23.4833 19.4339 23.4824 19.0013C23.4815 18.5687 23.3726 18.1432 23.1656 17.7633V15.2696H25.007V20.7723C24.0832 21.7621 23.5372 23.0455 23.4647 24.3975H18.3007C18.2177 22.8951 17.5534 21.4838 16.4485 20.4624ZM29.2485 28.7146C28.4574 28.7146 27.684 28.48 27.0262 28.0405C26.3684 27.601 25.8557 26.9763 25.553 26.2454C25.2502 25.5145 25.171 24.7102 25.3253 23.9343C25.4797 23.1584 25.8606 22.4456 26.4201 21.8862C26.9795 21.3268 27.6922 20.9458 28.4681 20.7915C29.244 20.6372 30.0483 20.7164 30.7792 21.0191C31.5101 21.3219 32.1348 21.8346 32.5744 22.4924C33.0139 23.1502 33.2485 23.9235 33.2485 24.7146C33.2485 25.7755 32.8271 26.7929 32.0769 27.5431C31.3268 28.2932 30.3093 28.7146 29.2485 28.7146Z" fill="white"/>
<path d="M20.4196 2.47327C20.4447 2.38346 20.4984 2.30426 20.5725 2.24768C20.6466 2.19111 20.7372 2.16024 20.8305 2.15976H21.0431C21.1383 2.15723 21.2316 2.18676 21.3081 2.24361C21.3845 2.30046 21.4397 2.38134 21.4647 2.47327L21.5476 4.9958L23.3494 4.93814L23.2665 2.33634V2.21381C23.178 1.69018 22.9053 1.2154 22.4976 0.875102C22.09 0.534805 21.5741 0.351397 21.0431 0.357958H20.8305C20.304 0.356816 19.7943 0.542823 19.3923 0.882771C18.9903 1.22272 18.7222 1.69447 18.6359 2.21381L18.5386 4.94535L20.3404 5.003L20.4196 2.47327Z" fill="white"/>
<path d="M0.924149 26.8336H5.42865V25.0318V23.23V21.4282H0.924149V26.8336Z" fill="white"/>
<path d="M36.4196 21.4282V22.3291V25.9327V26.8336H40.9242V21.4282H36.4196Z" fill="white"/>
<path d="M9.71694 15.2696H10.798V9.98315H9.71694C9.0328 10.0084 8.3851 10.298 7.91003 10.7909C7.43495 11.2838 7.16951 11.9418 7.16951 12.6264C7.16951 13.311 7.43495 13.9689 7.91003 14.4619C8.3851 14.9548 9.0328 15.2444 9.71694 15.2696Z" fill="white"/>
<path d="M34.6899 12.6102C34.689 11.9099 34.4104 11.2386 33.9152 10.7435C33.42 10.2483 32.7487 9.9697 32.0485 9.96875H31.1259V15.2697H32.0485C32.3967 15.2692 32.7415 15.1999 33.0629 15.0659C33.3844 14.9319 33.6762 14.7357 33.9216 14.4886C34.167 14.2415 34.3612 13.9483 34.4931 13.626C34.6249 13.3037 34.6918 12.9585 34.6899 12.6102Z" fill="white"/>
</g>
<defs>
<clipPath id="clip0_9_141">
<rect width="40" height="30.1586" fill="white" transform="translate(0.924149 0.35791)"/>
</clipPath>
</defs>
</svg>
