<?xml version="1.0" encoding="utf-8"?><svg xmlns="http://www.w3.org/2000/svg" xmlns:xlink="http://www.w3.org/1999/xlink"><symbol fill="none" viewBox="0 0 7 10" id="angle" xmlns="http://www.w3.org/2000/svg"><path fill-rule="evenodd" clip-rule="evenodd" d="M6.25 5.002 3.125 0H.13l3.145 5.002L0 10h3.125L6.25 5.002Z" fill="currentColor"/></symbol><symbol fill="none" viewBox="0 0 30 28" id="cart" xmlns="http://www.w3.org/2000/svg"><path fill-rule="evenodd" clip-rule="evenodd" d="M23.053 21.44a3.287 3.287 0 0 1 3.294 3.281A3.286 3.286 0 0 1 23.053 28a3.286 3.286 0 0 1-3.293-3.279 3.287 3.287 0 0 1 3.293-3.281Zm-13.173 0a3.288 3.288 0 0 1 3.293 3.281A3.287 3.287 0 0 1 9.88 28a3.286 3.286 0 0 1-3.293-3.279A3.287 3.287 0 0 1 9.88 21.44ZM29.64 6.682l-1.647 4.92c-.609 1.379-1.473 3.279-3.293 3.279H8.826l.194 1.642h20.62L27.993 19.8H7.166l-1.059.124L4.154 3.404H1.647C.737 3.404 0 2.669 0 1.764 0 .858.58.024 1.489.024L7.066 0l.418 3.54c.206-.08.44-.136.75-.136h19.76c1.819 0 1.646 1.468 1.646 3.278Z" fill="currentColor" fill-opacity=".9"/></symbol><symbol fill="none" viewBox="0 0 31 32" id="check" xmlns="http://www.w3.org/2000/svg"><path d="M12.384 3.328h2.288V14H1.056V3.328h2.272V12H6.72V3.328h2.288V12h3.376V3.328Zm8.5 0h7.792v2h-5.52v1.888h2.768c1.099 0 1.963.325 2.592.976.63.65.944 1.456.944 2.416s-.315 1.765-.944 2.416c-.63.65-1.493.976-2.592.976h-5.04V3.328Zm4.736 5.888h-2.464V12h2.464c.448 0 .81-.128 1.088-.384.288-.256.432-.592.432-1.008 0-.427-.144-.763-.432-1.008-.277-.256-.64-.384-1.088-.384ZM1.862 28h-.728v-6.762h.728v2.94h3.836v-2.94h.728V28h-.728v-3.178H1.862V28Zm16.84 0h-.742v-5.768L15.65 28h-.266l-2.338-5.768V28h-.728v-6.762h.98l2.212 5.488 2.184-5.488h1.008V28Zm11.563 0h-.98l-2.702-3.22-1.26 1.19V28h-.728v-6.762h.728v3.864l3.99-3.864h.966l-3.15 3.052L30.265 28Z" fill="currentColor"/></symbol><symbol fill="none" viewBox="0 0 20 21" id="facebook" xmlns="http://www.w3.org/2000/svg"><path d="M13.33 3.758h1.827V.578a23.576 23.576 0 0 0-2.66-.14c-5.777 0-4.205 6.54-4.435 7.5H5.156v3.554H8.06v8.945h3.562v-8.944h2.787l.443-3.555h-3.231c.156-2.353-.634-4.18 1.709-4.18Z" fill="#3B5999"/></symbol><symbol fill="none" viewBox="0 0 16 16" id="home" xmlns="http://www.w3.org/2000/svg"><path d="M7.744 1 .611 8.379a.06.06 0 0 0 .042.104h1.781V15h3.62v-4.103h3.38V15h3.62V8.483h1.783a.06.06 0 0 0 .042-.104L7.744 1Z" stroke="currentColor" stroke-miterlimit="10" stroke-linecap="round" stroke-linejoin="round"/></symbol><symbol fill="none" viewBox="0 0 20 21" id="instagram" xmlns="http://www.w3.org/2000/svg"><g clip-path="url(#fa)"><path d="M13.75.437h-7.5A6.25 6.25 0 0 0 0 6.687v7.5a6.25 6.25 0 0 0 6.25 6.25h7.5a6.25 6.25 0 0 0 6.25-6.25v-7.5a6.25 6.25 0 0 0-6.25-6.25Zm4.375 13.75a4.38 4.38 0 0 1-4.375 4.375h-7.5a4.38 4.38 0 0 1-4.375-4.375v-7.5A4.38 4.38 0 0 1 6.25 2.312h7.5a4.38 4.38 0 0 1 4.375 4.375v7.5Z" fill="url(#fb)"/><path d="M10 5.437a5 5 0 1 0 0 10 5 5 0 0 0 0-10Zm0 8.125a3.13 3.13 0 0 1-3.125-3.125A3.129 3.129 0 0 1 10 7.312a3.129 3.129 0 0 1 3.125 3.125A3.13 3.13 0 0 1 10 13.562Z" fill="url(#fc)"/><path d="M15.375 5.728a.666.666 0 1 0 0-1.332.666.666 0 0 0 0 1.332Z" fill="url(#fd)"/></g><defs><linearGradient id="fb" x1="1.831" y1="18.607" x2="18.169" y2="2.268" gradientUnits="userSpaceOnUse"><stop stop-color="#FFC107"/><stop offset=".507" stop-color="#F44336"/><stop offset=".99" stop-color="#9C27B0"/></linearGradient><linearGradient id="fc" x1="6.465" y1="13.973" x2="13.535" y2="6.902" gradientUnits="userSpaceOnUse"><stop stop-color="#FFC107"/><stop offset=".507" stop-color="#F44336"/><stop offset=".99" stop-color="#9C27B0"/></linearGradient><linearGradient id="fd" x1="14.904" y1="5.533" x2="15.846" y2="4.591" gradientUnits="userSpaceOnUse"><stop stop-color="#FFC107"/><stop offset=".507" stop-color="#F44336"/><stop offset=".99" stop-color="#9C27B0"/></linearGradient><clipPath id="fa"><path fill="#fff" transform="translate(0 .437)" d="M0 0h20v20H0z"/></clipPath></defs></symbol><symbol fill="none" viewBox="0 0 14 16" id="location" xmlns="http://www.w3.org/2000/svg"><path d="M6.997 0A6.422 6.422 0 0 0 .74 7.832c.097.433.241.859.43 1.265.69 1.627 2.21 4.126 5.544 6.802a.455.455 0 0 0 .57 0c3.33-2.676 4.854-5.175 5.545-6.802a6.25 6.25 0 0 0 .473-1.48c.073-.395.114-.801.114-1.204C13.41 2.878 10.532 0 6.997 0Zm5.407 7.46c0 .007-.004.013-.004.02a7.747 7.747 0 0 1-.03.144v.007a5.32 5.32 0 0 1-.372 1.094c-.003.003-.003.01-.007.013-.627 1.486-2.002 3.753-4.994 6.226-2.992-2.473-4.368-4.74-4.995-6.226C2 8.735 2 8.728 1.995 8.725a5.68 5.68 0 0 1-.372-1.094v-.007c-.02-.077-.027-.127-.03-.144 0-.007-.003-.013-.003-.023A5.516 5.516 0 0 1 6.997.903a5.516 5.516 0 0 1 5.407 6.557Z" fill="#76B926"/><path d="M6.997 2.412a4.078 4.078 0 0 0-4.072 4.072 4.078 4.078 0 0 0 4.072 4.072 4.079 4.079 0 0 0 4.072-4.072 4.078 4.078 0 0 0-4.072-4.072Zm0 7.238A3.17 3.17 0 0 1 3.83 6.484a3.172 3.172 0 0 1 3.167-3.167 3.172 3.172 0 0 1 3.166 3.167A3.17 3.17 0 0 1 6.997 9.65Z" fill="#76B926"/></symbol><symbol fill="none" viewBox="0 0 200 56" id="logo" xmlns="http://www.w3.org/2000/svg"><path d="M175.653 55.531c-3.956-.27-7.046-1.447-9.464-3.653-1.063-1-1.95-2.162-2.629-3.438-.097-.202-.195-.365-.209-.365a6.95 6.95 0 0 0-.559.325l-3.411 1.895c-5.41 2.814-10.974 4.465-16.58 4.952-1.817.136-3.914.176-5.2.068-2.88-.27-5.215-1.056-7.102-2.436a15.832 15.832 0 0 1-1.957-1.84 14.34 14.34 0 0 1-1.007-1.421l-.195-.339-.616.515c-3.355 2.787-6.808 4.52-10.233 5.142-1.649.298-3.424.325-4.669.081a5.125 5.125 0 0 1-2.16-.853 4.918 4.918 0 0 1-1.53-1.704c-.839-1.543-1.021-3.654-.629-6.672.237-1.813.419-2.774 1.398-6.09.447-1.758.838-3.788.978-5.114.084-.785.084-1.922 0-2.436-.182-1.178-.629-1.854-1.44-2.165-.279-.109-1.02-.136-1.37-.041-1.496.379-3.215 2.138-5.172 5.278-2.698 4.33-4.194 8.363-4.571 12.517-.084.866-.07 3.329.014 4.114.097.893.28 1.8.53 2.435l.224.623c.028.081-.013.081-1.342.054-1.481-.027-2.418-.095-3.438-.27-3.705-.596-5.802-2.03-6.71-4.601-.56-1.557-.7-3.221-.518-5.711.134-1.757.443-3.497.923-5.197.416-1.473.72-2.975.908-4.492.084-.772.098-2.206.028-2.598-.28-1.259-.866-1.922-1.957-2.166-.224-.04-.461-.054-.783-.04a2.015 2.015 0 0 0-.796.149c-1.398.541-2.894 2.3-4.474 5.413a28.804 28.804 0 0 0-3.201 10.433c-.21 1.949-.196 4.736 0 6.55.112.974.335 2.03.559 2.598.028.08 0 .08-1.174.054a17.738 17.738 0 0 1-4.166-.487 8.886 8.886 0 0 1-4.46-2.423 8.033 8.033 0 0 1-1.677-3.112 4.982 4.982 0 0 0-.126-.406c-.014-.013-.196.135-.42.338-3.145 2.775-5.983 4.507-9.016 5.508-1.678.541-3.495.852-5.117.852-2.376 0-4.096-.811-5.2-2.435-.447-.65-.699-1.218-.909-2.03-.42-1.624-.35-3.586.28-6.658l1.775-6.97 1.454-5.182c.224-.866.238-.947.238-1.394-.014-1.488-.63-2.327-1.678-2.34-.28 0-.35.013-.67.162-.476.23-.84.473-1.762 1.11l-.783.54-.112.339c-.643 1.867-2.04 4.6-3.663 7.09-1.775 2.761-4.5 6.36-6.85 9.094-4.57 5.305-8.499 8.187-11.966 8.796-.643.109-1.608.109-2.097-.013-2.153-.514-3.914-2.625-5.48-6.455a198.1 198.1 0 0 1-2.013-7.05A1431.89 1431.89 0 0 0 9.702 34.8a20.072 20.072 0 0 0-2.153-5.074c-.559-.813-1.23-1.327-1.817-1.38-.238-.028-.28-.014-.643.162-.364.175-1.496.88-2.433 1.515l-.53.352c-.029.014-.42-.406-1.05-1.218-.351-.444-.705-.886-1.062-1.326-.056-.054.028-.135.7-.73a604.744 604.744 0 0 0 4.57-4.006c2.07-1.84 3.272-2.788 4.67-3.654 1.481-.947 2.418-1.3 3.522-1.353 2.768-.136 4.614 1.353 5.592 4.898.238.812.35 1.354.7 3.573l1.956 10.284c.741 2.87 1.566 4.534 2.447 4.953.238.108.307.136.517.108.979-.067 2.335-1.529 4.236-4.465 1.538-2.436 2.516-4.385 2.838-5.873.084-.379.098-.541.098-1.326s-.014-.948-.07-1.164c-.224-.758-.63-1.272-1.258-1.57-.518-.243-.867-.311-1.678-.311-.953 0-1.896.174-2.782.514-.28.095-.42.136-.447.108.059-.243.134-.482.223-.717.783-2.22 1.678-4.06 2.88-5.413.42-.54 1.286-1.393 1.79-1.786a10.161 10.161 0 0 1 2.963-1.624c2.167-.771 5.117-.906 6.99-.311 2.544.812 3.914 2.869 4.194 6.441l.028.339.196-.176 1.677-1.354c3.355-2.977 5.312-4.33 6.934-4.79.321-.095.503-.108 1.062-.135 2.041-.068 3.467.541 4.446 1.989.895 1.3 1.3 2.977 1.174 4.912-.028.541-.098.947-.461 2.707l-2.153 11.773c-.252 1.542-.28 1.597-.238 2.165.056 1.38.364 2.233 1.007 2.869.182.191.4.348.643.46.559.27 1.398.352 1.957.216a7.52 7.52 0 0 0 1.524-.703 19.787 19.787 0 0 0 3.061-2.287c.055-.37.106-.74.154-1.11l.56-3.478.81-5.467.168-2.706c-.056-.731-.56-1.11-1.16-.92-.42.135-1.315.676-2.559 1.515-.517.352-.629.406-.67.366L60.49 27.98c0-.014.111-.136.251-.23l4.516-4.06 4.753-4.06c.866-.636 1.537-1.014 2.124-1.217.252-.082.378-.095.84-.095.335 0 .698.027.838.067 1.188.271 2.125.907 2.894 2.03a9.18 9.18 0 0 1 1.51 3.79c.14.77.14 2.273.028 2.909l-.07.46c0 .027.14-.136.28-.366a19.918 19.918 0 0 1 4.389-4.424 26.22 26.22 0 0 1 2.083-1.34c2.46-1.354 5.172-2.098 7.884-2.165 2.516-.082 4.418.514 5.732 1.759.49.476.892 1.03 1.188 1.637.587 1.177.839 2.436.923 4.236l.028.866.755-.636a12.91 12.91 0 0 0 1.23-1.177 35.389 35.389 0 0 1 2.404-2.396c2.754-2.436 5.662-3.816 8.835-4.195.769-.094 2.055-.135 2.712-.067a6.678 6.678 0 0 1 4.32 1.8c1.538 1.583 2.195 3.694 2.041 6.684-.112 2.166-.447 4.155-1.398 8.12-1.16 4.98-1.342 6.035-1.202 7.388.112 1.083.335 1.543.908 1.84.42.217.783.298 1.538.325.615.027.657.014.979-.094.419-.136.978-.406 1.51-.758.321-.203.391-.27.377-.325-.07-.27-.14-1.759-.098-2.639.053-2.83.77-5.61 2.097-8.133a25.415 25.415 0 0 1 3.523-5.196c4.194-5.007 9.506-8.12 15.293-9.202 2.377-.433 5.173-.541 7.214-.27 3.914.487 6.347 2.124 7.437 4.98.349.947.559 1.962.587 3.085.028 1.123-.084 1.935-.461 3.058-.839 2.49-2.796 4.98-5.9 7.605-3.676 3.086-8.206 5.237-13.35 6.36l-2.097.406c-.056 0 .419.542.741.812.979.907 2.181 1.421 3.677 1.597.559.068 2.656.027 3.634-.068 4.124-.379 8.164-1.448 12.917-3.423l.979-.406-.028-.23a21.865 21.865 0 0 1 0-4.141 19.503 19.503 0 0 1 3.411-9.026 25.717 25.717 0 0 1 2.586-3.22 24.085 24.085 0 0 1 7.409-5.657 23.977 23.977 0 0 1 10.331-2.395c1.636-.028 2.74.054 4.054.31a12.512 12.512 0 0 1 4.935 2.098c1.03.797 1.938 1.731 2.698 2.774 1.887 2.572 2.824 5.955 2.712 9.838-.098 3.519-.839 6.685-2.237 9.676-1.398 2.68-3.327 5.453-5.647 7.537-3.565 3.248-7.647 5.007-12.554 5.494-.629.068-3.117.109-3.719.082l-.181-.46Zm3.047-8.335c2.586-.298 4.893-2.03 6.822-5.183a18.093 18.093 0 0 0 2.894-10.055c-.042-1.38-.21-2.395-.601-3.545-.364-1.042-.727-1.665-1.216-2.098-.49-.433-.979-.568-1.985-.5a8.323 8.323 0 0 0-3.076.784c-1.817.867-3.355 2.328-4.753 4.602a19.182 19.182 0 0 0-3.006 9.201c-.111 1.76.168 3.248.881 4.642.503.974 1.147 1.664 1.859 1.962a4.465 4.465 0 0 0 2.181.19Zm-39.939-7.308c3.906-1.486 7.278-4.045 9.702-7.361.657-.948 1.076-1.868 1.216-2.64a4.459 4.459 0 0 0-.07-1.447 2.375 2.375 0 0 0-.447-.893c-.168-.19-.504-.406-.839-.5a4.766 4.766 0 0 0-1.65-.041c-1.775.365-3.523 1.677-5.284 3.978-1.915 2.49-2.964 4.872-3.215 7.213-.056.609-.056 1.894 0 1.894.185-.053.367-.117.545-.19l.042-.013Zm-85.275-27.74c-.979-.082-1.985-.353-2.628-.718-.364-.203-.909-.677-1.147-.988a4.25 4.25 0 0 1-.727-1.8 7.34 7.34 0 0 1 .028-2.165c.224-1.082.84-2.11 1.874-3.153C52.636 1.47 55.029.3 57.61.036c1.398-.136 2.656.108 3.593.812.936.703 1.677 1.759 2.013 2.774.14.5.195 1.353.084 1.948-.252 1.394-1.049 2.707-2.46 4.06-1.497 1.421-3.104 2.192-5.034 2.463-.559.081-1.733.108-2.292.068l-.028-.014Z" fill="currentColor"/></symbol><symbol fill="none" viewBox="0 0 41 31" id="point_1" xmlns="http://www.w3.org/2000/svg"><g clip-path="url(#ia)" fill="#fff"><path d="M33.299 20.567 31.194 17.6l-1.473 1.038.227.32a5.636 5.636 0 0 0-3.14.498V15.27h2.523V9.983h-4.324a.274.274 0 0 1-.27-.27v-1.74a1.474 1.474 0 0 0-1.47-1.489H18.51a1.474 1.474 0 0 0-1.47 1.474v1.77a.274.274 0 0 1-.27.27h-4.163v5.272h2.04v4.054a5.77 5.77 0 0 0-2.134-.411 5.482 5.482 0 0 0-.691.047l.223-.321-1.47-1.038-2.083 2.937a5.794 5.794 0 1 0 9.625 5.661h5.531a5.798 5.798 0 1 0 9.65-5.632ZM20.88 18.199a.8.8 0 1 1 .007 1.601.8.8 0 0 1-.007-1.6Zm-8.368 10.516a4 4 0 1 1 0-8 4 4 0 0 1 0 8Zm3.935-8.253V15.27h1.982v2.883a2.598 2.598 0 1 0 4.736-.39V15.27h1.841v5.502a5.766 5.766 0 0 0-1.542 3.626H18.3a5.794 5.794 0 0 0-1.852-3.936Zm12.8 8.253a4 4 0 1 1 0-8.001 4 4 0 0 1 0 8ZM20.42 2.473a.43.43 0 0 1 .41-.313h.213a.425.425 0 0 1 .422.313l.083 2.523 1.801-.058-.082-2.602v-.122A2.227 2.227 0 0 0 21.043.358h-.212a2.22 2.22 0 0 0-2.195 1.856l-.097 2.731 1.801.058.08-2.53ZM.924 26.834H5.43V21.428H.924v5.406ZM36.42 21.428v5.405h4.504v-5.405H36.42Z"/><path d="M9.717 15.27h1.081V9.983H9.717a2.645 2.645 0 0 0 0 5.287ZM34.69 12.61a2.644 2.644 0 0 0-2.642-2.641h-.922v5.3h.922a2.646 2.646 0 0 0 2.642-2.659Z"/></g><defs><clipPath id="ia"><path fill="#fff" transform="translate(.924 .358)" d="M0 0h40v30.159H0z"/></clipPath></defs></symbol><symbol fill="none" viewBox="0 0 36 27" id="point_2" xmlns="http://www.w3.org/2000/svg"><g clip-path="url(#ja)" fill="#fff"><path d="M13.732 26.51a14.152 14.152 0 0 1-5.488-1.148 13.364 13.364 0 0 1-6.6-5.804c-1.398-2.584-1.6-5.332-.577-7.749l1.636.711c-.807 1.891-.63 4.091.504 6.188a11.576 11.576 0 0 0 5.72 5.02 11.59 11.59 0 0 0 7.584.635c2.293-.64 4.006-2.04 4.813-3.945l1.638.711c-1.027 2.413-3.149 4.173-5.974 4.976a12.11 12.11 0 0 1-3.256.405Z"/><path d="M20.474 22.288c-3.373 0-8.97-2.325-9.799-2.673-1.12-.476-10.908-4.738-9.654-7.695 1.255-2.958 11.133 1.137 12.238 1.613a43.758 43.758 0 0 1 5.484 2.766l-.902 1.52a41.807 41.807 0 0 0-5.257-2.65c-5.378-2.28-8.872-2.741-9.825-2.51.509.856 3.256 3.042 8.613 5.317 5.356 2.275 8.829 2.74 9.796 2.513-.2-.313-.768-.952-2.133-1.88l1.006-1.465c2.424 1.668 3.33 2.965 2.843 4.08-.298.772-1.215 1.064-2.41 1.064ZM33.92 7.772l-1.172 1.332c.313.256.589.555.817.89-.97.227-4.46-.246-9.796-2.514-5.335-2.268-8.114-4.471-8.612-5.317.956-.235 4.46.23 9.792 2.51a37.738 37.738 0 0 1 6.622 3.532l1.034-1.443a39.62 39.62 0 0 0-6.945-3.725c-1.105-.473-10.723-4.45-12.18-1.72 0 .028-.022.057-.036.089v.021a.17.17 0 0 0 0 .046c-2.001 4.873 1.215 10.852 7.187 13.39a14.097 14.097 0 0 0 5.502 1.14 12.208 12.208 0 0 0 3.252-.433c2.77-.771 4.86-2.488 5.908-4.813a.212.212 0 0 1 .021-.039v-.032l.035-.078c.41-1.216-.963-2.424-1.428-2.836Zm-7.193 5.473a5.349 5.349 0 0 1-4.582-.64l.981-1.482a3.555 3.555 0 0 0 3.06.427l.15-.046.54 1.692-.15.05ZM12.964 23.916a5.332 5.332 0 0 1-2.943-.893l.981-1.482a3.555 3.555 0 0 0 3.06.427l.153-.046.537 1.695-.15.046a5.368 5.368 0 0 1-1.638.253Z"/></g><defs><clipPath id="ja"><path fill="#fff" transform="translate(.424 .364)" d="M0 0h35v26.146H0z"/></clipPath></defs></symbol><symbol fill="none" viewBox="0 0 36 24" id="point_3" xmlns="http://www.w3.org/2000/svg"><g clip-path="url(#ka)" fill="#fff"><path d="M30.259 8.817c.623 1.792 2.292 3.69 4.203 3.69h1.528v-1.91h-1.528c-.913 0-1.995-1.268-2.392-2.407a11.398 11.398 0 1 0-.913 9.484c.684-1.173 1.582-1.987 2.185-1.987h2.63v-1.91h-2.634c-1.91 0-3.32 2.051-3.82 2.934a9.472 9.472 0 0 1-11.074 4.276 11.386 11.386 0 0 0 0-18.085 9.171 9.171 0 0 1 1.945-.405 9.491 9.491 0 0 1 9.87 6.32ZM21 11.942a9.47 9.47 0 0 1-4.586 8.128 9.549 9.549 0 0 1-2.07-1.655 9.708 9.708 0 0 1-1.319-1.822c.118.027.239.041.36.042 1.528 0 2.716-2.064 2.716-4.696 0-2.633-1.192-4.696-2.717-4.696-.115 0-.23.014-.344.038a9.697 9.697 0 0 1 3.37-3.466 9.472 9.472 0 0 1 4.59 8.127ZM7.039 11.625H.97v1.91H7.04v-1.91ZM4.189 5.282l-1.117 1.55 3.852 2.774L8.04 8.055 4.189 5.282ZM6.925 15.552l-3.852 2.772 1.116 1.55 3.852-2.771-1.116-1.55Z"/></g><defs><clipPath id="ka"><path fill="#fff" transform="translate(.971 .544)" d="M0 0h35v22.796H0z"/></clipPath></defs></symbol><symbol fill="none" viewBox="0 0 30 41" id="point_4" xmlns="http://www.w3.org/2000/svg"><g clip-path="url(#la)" fill="#fff"><path d="m24.682 15.24-1.94-.283.291-1.97v-.05c.69-3.456-1.1-6.981-4.169-8.214l.718-1.8c3.917 1.551 6.205 6.02 5.356 10.37l-.256 1.947Z"/><path d="M20.683 6.914h-1.939c0-3.138-1.245-4.538-4.11-4.538-1.707 0-3.041.776-4.337 1.552-1.36.806-2.773 1.64-4.355 1.163l.574-1.854c.725.225 1.551-.22 2.792-.97 1.377-.818 3.088-1.83 5.325-1.83 3.902 0 6.05 2.3 6.05 6.477ZM4.887 13.332a9.28 9.28 0 0 1 1.226-6.79l1.648 1.02a7.369 7.369 0 0 0-.977 5.375l-1.897.395ZM14.843 28.233a7.586 7.586 0 0 1-7.574-7.575v-.112a2.963 2.963 0 0 1 .643-5.84 5.188 5.188 0 0 1 1.292-1.552c1.551-1.264 2.532-1.233 4.033-1.183.47 0 1.005.031 1.656 0a4.79 4.79 0 0 0 4.212-2.416.97.97 0 0 1 1.83.248l.83 4.906a2.963 2.963 0 0 1 .633 5.817v.078a7.586 7.586 0 0 1-7.555 7.629ZM7.959 16.644a1.024 1.024 0 0 0 0 2.044h.295a.973.973 0 0 1 .97.985v.997a5.635 5.635 0 1 0 11.27 0l-.067-.962a.969.969 0 0 1 .95-1.02h.218a1.024 1.024 0 0 0 0-2.044h-.633a.973.973 0 0 1-.957-.806l-.617-3.584a6.845 6.845 0 0 1-4.44 1.676c-.714.019-1.304 0-1.777 0-1.353-.043-1.76-.055-2.738.744a3.204 3.204 0 0 0-.993 1.358.973.973 0 0 1-.907.628l-.574-.016Z"/><path d="M12.07 20.526a2.715 2.715 0 1 1 0-5.43 2.715 2.715 0 0 1 0 5.43Zm0-3.49a.776.776 0 1 0 .775.776.775.775 0 0 0-.775-.76v-.016Z"/><path d="M17.5 20.526a2.715 2.715 0 1 1 0-5.43 2.715 2.715 0 0 1 0 5.43Zm0-3.49a.776.776 0 1 0 .775.776.775.775 0 0 0-.776-.76v-.016Z"/><path d="m20.502 14.627-1.999 2.24 1.447 1.291 1.999-2.24-1.447-1.29ZM9.172 14.629 7.725 15.92l1.999 2.24 1.447-1.291-1.999-2.24ZM27.703 32.844a12.966 12.966 0 0 0-6.353-5.011.95.95 0 0 0-.903.198c-.027.023-2.734 2.385-5.538 2.385h-.125c-2.8 0-5.483-2.362-5.51-2.381a.946.946 0 0 0-.939-.19 13.729 13.729 0 0 0-6.287 5.138c-1.582 2.51-1.613 6.38-1.613 6.57a.95.95 0 0 0 .942.884h6.039l21.05-.027a.95.95 0 0 0 .947-.907c.008-.198-.136-4.162-1.71-6.66Z"/></g><defs><clipPath id="la"><path fill="#fff" transform="translate(.435 .437)" d="M0 0h28.978v40H0z"/></clipPath></defs></symbol><symbol fill="none" viewBox="0 0 36 26" id="point_5" xmlns="http://www.w3.org/2000/svg"><g clip-path="url(#ma)" fill="#fff"><path d="M26.403 25.384a7.036 7.036 0 1 1 7.033-7.036 7.044 7.044 0 0 1-7.033 7.037Zm0-12.197a5.164 5.164 0 1 0-.008 10.329 5.164 5.164 0 0 0 .008-10.329ZM13.224 21.808l-1.258-1.397a2.604 2.604 0 1 0-3.505-3.853l-1.24-1.39a4.493 4.493 0 0 1 5.992 6.64h.011Z"/><path d="m29.193 21.808-1.259-1.397a2.621 2.621 0 0 0 .188-3.677 2.603 2.603 0 0 0-3.678-.184l-1.25-1.382a4.474 4.474 0 0 1 7.108 5.243 4.473 4.473 0 0 1-1.117 1.397h.008ZM10.532 25.384a7.037 7.037 0 1 1 7.037-7.036 7.044 7.044 0 0 1-7.037 7.037Zm0-12.197a5.164 5.164 0 1 0 0 10.329 5.164 5.164 0 0 0 0-10.329Z"/><path d="M20.988 15.756a4.79 4.79 0 0 0-4.91 0l-.959-1.606a6.643 6.643 0 0 1 6.827 0l-.958 1.606ZM20.134 19.037a3.109 3.109 0 0 0-3.202 0l-.963-1.622a4.996 4.996 0 0 1 5.127 0l-.962 1.622ZM3.016 14.955H1.143v2.704h1.873v-2.704ZM35.971 14.955h-1.872v2.704h1.872v-2.704ZM2.29 12.573.97 11.243 11.116 1.208a.932.932 0 0 1 1.232-.07l3.045 2.37-1.154 1.498-2.408-1.888-9.542 9.456ZM34.544 12.573l-9.557-9.456L22.59 4.99l-1.15-1.483 3.045-2.37a.936.936 0 0 1 1.233.07l10.144 10.037-1.318 1.33Z"/></g><defs><clipPath id="ma"><path fill="#fff" transform="translate(.971 .938)" d="M0 0h35v24.447H0z"/></clipPath></defs></symbol><symbol fill="none" viewBox="0 0 26 36" id="point_6" xmlns="http://www.w3.org/2000/svg"><g clip-path="url(#na)" fill="#fff"><path d="M23.832 28.212c-1.916-3.044-5.418-4.143-5.565-4.187a.921.921 0 0 0-.885.195l-4.386 3.933-4.644-3.944a.917.917 0 0 0-.896-.166c-.154.048-3.6 1.26-5.517 4.29C.638 30.399.833 34.6.833 35.068a.922.922 0 0 0 .944.885h15.878l2.58-.022h3.852a.921.921 0 0 0 .921-.892c.015-.494.122-4.762-1.176-6.826Zm-3.538 3.686h-3.686v-1.843h3.686v1.843Z"/><path d="M23.57 24.312h-1.842v-12.8a8.732 8.732 0 0 0-17.463 0v12.8H2.422v-12.8a10.574 10.574 0 0 1 21.148 0v12.8Z"/><path d="M12.705 23.218c-3.8 0-6.668-3.041-6.668-7.073a.936.936 0 0 1 .325-.697c.026 0 2.524-2.211 4.791-4.264a15.025 15.025 0 0 0 3.236-4.32l1.677.76a16.696 16.696 0 0 1-3.685 4.923c-1.788 1.659-3.73 3.343-4.486 4.007.173 2.812 2.152 4.82 4.81 4.82a4.828 4.828 0 0 0 4.825-4.824v-.641a13.51 13.51 0 0 0-1.917-6.266l1.574-.966a15.152 15.152 0 0 1 2.185 7.232v.641a6.674 6.674 0 0 1-6.667 6.668Z"/></g><defs><clipPath id="na"><path fill="#fff" transform="translate(.833 .937)" d="M0 0h24.182v35H0z"/></clipPath></defs></symbol><symbol fill="none" viewBox="0 0 24 24" id="search" xmlns="http://www.w3.org/2000/svg"><path d="m23.789 22.776-5.833-5.832a10.192 10.192 0 0 0 2.512-6.71C20.468 4.586 15.876 0 10.235 0 4.589 0 .002 4.592.002 10.233c0 5.641 4.592 10.233 10.233 10.233 2.565 0 4.912-.947 6.71-2.511l5.833 5.832a.723.723 0 0 0 .505.213.72.72 0 0 0 .505-1.224ZM1.433 10.233c0-4.853 3.949-8.796 8.797-8.796 4.853 0 8.796 3.948 8.796 8.796 0 4.848-3.943 8.802-8.796 8.802-4.848 0-8.797-3.949-8.797-8.802Z" fill="currentColor"/></symbol><symbol fill="none" viewBox="0 0 20 21" id="vk" xmlns="http://www.w3.org/2000/svg"><path d="M16.596 11.294c-.323-.408-.231-.59 0-.955.004-.004 2.673-3.693 2.948-4.943l.002-.001c.137-.456 0-.791-.661-.791h-2.187c-.556 0-.813.287-.95.61 0 0-1.114 2.664-2.689 4.392-.508.499-.743.659-1.02.659-.137 0-.35-.16-.35-.616V5.395c0-.547-.156-.791-.617-.791H7.634c-.349 0-.557.255-.557.492 0 .519.788.638.87 2.096v3.165c0 .693-.126.82-.405.82-.744 0-2.548-2.675-3.617-5.738-.216-.594-.427-.834-.987-.834H.75c-.624 0-.75.287-.75.609 0 .568.743 3.394 3.457 7.127 1.808 2.549 4.355 3.93 6.671 3.93 1.393 0 1.563-.307 1.563-.835 0-2.434-.126-2.665.571-2.665.324 0 .88.16 2.18 1.39 1.486 1.457 1.73 2.11 2.562 2.11h2.187c.623 0 .939-.307.757-.912-.416-1.273-3.226-3.89-3.352-4.065Z" fill="#4B729F"/></symbol><symbol fill="none" viewBox="0 0 28 24" id="wishlist" xmlns="http://www.w3.org/2000/svg"><path fill-rule="evenodd" clip-rule="evenodd" d="M13.815 24S.453 14.117.04 6.85c-.66-5.223 6.83-9.798 12.71-4.48 1.232 1.154 1.077 1.156 1.077 1.156s.282.037 1.217-1.157c2.55-3.916 13.265-3.244 12.571 4.607C27.035 14.152 13.815 24 13.815 24Z" fill="currentColor"/></symbol></svg>